<svg width="45" height="45" viewBox="0 0 45 45" fill="none" xmlns="https://www.w3.org/2000/svg">
<rect width="45" height="45" rx="22.5" fill="#C7BDB1"/>
<path d="M38.0694 14.9896H32.9583V9.84375H31.2689V14.9896H26.4271V16.5729H31.2689V21.7187H32.9583V16.5729H38.0694V14.9896ZM20.4896 25.0833C19.6979 24.6875 18.3125 23.3021 18.3125 22.5104C18.3125 21.7187 18.5104 21.125 19.8958 20.1354C21.2812 19.1458 22.2708 17.7604 22.2708 15.9792C22.2708 13.8021 21.2812 11.8229 19.6979 11.2292H22.2708L24.0521 9.84375H15.7396C11.9792 9.84375 8.61458 12.6146 8.61458 15.9792C8.61458 19.3438 11.1875 21.9167 14.9479 21.9167H15.7396C15.3437 22.3125 15.3437 22.7083 15.3437 23.3021C15.3437 24.2917 15.9375 24.8854 16.5312 25.6771H15.1458C10.5937 25.6771 7.03125 28.6458 7.03125 31.6146C7.03125 34.5833 10.9896 36.5625 15.5417 36.5625C20.6875 36.5625 23.6562 33.5937 23.6562 30.625C23.4583 28.0521 22.6667 26.6667 20.4896 25.0833ZM16.1354 20.9271C13.9583 20.9271 11.9792 18.5521 11.5833 15.7813C11.1875 13.0104 12.5729 10.8333 14.75 10.8333C16.9271 10.8333 18.9062 13.2083 19.3021 15.9792C19.6979 18.75 18.3125 21.125 16.1354 20.9271ZM15.3437 35.1771C12.1771 35.1771 9.80208 33.1979 9.80208 30.8229C9.80208 28.4479 12.5729 26.4687 15.7396 26.4687C16.5312 26.4687 17.125 26.6667 17.7187 26.8646C19.5 28.0521 20.6875 28.6458 21.0833 30.0312C21.0833 30.2292 21.2812 30.625 21.2812 30.8229C21.2812 33.1979 19.6979 35.1771 15.3437 35.1771Z" fill="white"/>
</svg>
