<?xml version="1.0" ?><!DOCTYPE svg  PUBLIC '-//W3C//DTD SVG 1.0//EN'  'http://www.w3.org/TR/2001/REC-SVG-20010904/DTD/svg10.dtd'><svg height="32" style="overflow:visible;enable-background:new 0 0 32 32" viewBox="0 0 32 32" width="32" xml:space="preserve" xmlns="http://www.w3.org/2000/svg" xmlns:xlink="http://www.w3.org/1999/xlink"><g><g id="Google_x2B__1_"><g id="Google_x2B__2_"><circle cx="16" cy="16" id="BG" r="16" style="fill:black;"/><path d="M16.7,17.2c-0.4-0.3-1.3-1.1-1.3-1.5c0-0.5,0.2-0.8,1-1.4        c0.8-0.6,1.4-1.5,1.4-2.6c0-1.2-0.6-2.5-1.6-2.9h1.6L18.8,8h-5c-2.2,0-4.3,1.7-4.3,3.6c0,2,1.5,3.6,3.8,3.6c0.2,0,0.3,0,0.5,0        c-0.1,0.3-0.3,0.6-0.3,0.9c0,0.6,0.3,1,0.7,1.4c-0.3,0-0.6,0-0.9,0c-2.8,0-4.9,1.8-4.9,3.6c0,1.8,2.3,2.9,5.1,2.9        c3.1,0,4.9-1.8,4.9-3.6C18.4,19,18,18.1,16.7,17.2z M14.1,14.7c-1.3,0-2.5-1.4-2.7-3.1c-0.2-1.7,0.6-3,1.9-2.9        c1.3,0,2.5,1.4,2.7,3.1C16.2,13.4,15.3,14.8,14.1,14.7z M13.6,23.2c-1.9,0-3.3-1.2-3.3-2.7c0-1.4,1.7-2.6,3.6-2.6        c0.4,0,0.9,0.1,1.2,0.2c1,0.7,1.8,1.1,2,1.9c0,0.2,0.1,0.3,0.1,0.5C17.2,22.1,16.2,23.2,13.6,23.2z M21.5,15v-2h-1v2h-2v1h2v2        h1v-2h2v-1H21.5z" id="Google_x2B_" style="fill:#F4F4F4;"/></g></g></g></svg>
