<svg width="45" height="45" viewBox="0 0 45 45" fill="none" xmlns="https://www.w3.org/2000/svg">
<rect width="45" height="45" rx="22.5" fill="#C7BDB1"/>
<path d="M32.8906 8.4375H12.1094C10.4766 8.4375 9.14062 9.77344 9.14062 11.4062V32.1875C9.14062 33.8218 10.4766 35.1562 12.1094 35.1562H32.8906C34.5234 35.1562 35.8594 33.8218 35.8594 32.1875V11.4062C35.8594 9.77344 34.5234 8.4375 32.8906 8.4375ZM22.4763 29.9951C24.6566 29.9947 26.7475 29.1283 28.2891 27.5864C29.8307 26.0445 30.6967 23.9535 30.6967 21.7731C30.6967 21.2714 30.6329 20.7875 30.5438 20.3125H32.8906V31.0237C32.8906 31.1586 32.864 31.2922 32.8122 31.4167C32.7605 31.5413 32.6846 31.6544 32.5891 31.7496C32.4935 31.8447 32.3801 31.9201 32.2553 31.9713C32.1305 32.0225 31.9968 32.0486 31.862 32.048H13.138C13.0032 32.0486 12.8695 32.0225 12.7447 31.9713C12.6199 31.9201 12.5065 31.8447 12.4109 31.7496C12.3154 31.6544 12.2395 31.5413 12.1878 31.4167C12.136 31.2922 12.1094 31.1586 12.1094 31.0237V20.3125H14.4087C14.3181 20.7875 14.2543 21.2714 14.2543 21.7731C14.2547 23.9536 15.1211 26.0447 16.6629 27.5865C18.2047 29.1283 20.2958 29.9947 22.4763 29.9951ZM17.3388 21.7731C17.3388 21.0985 17.4717 20.4304 17.7299 19.8071C17.9881 19.1838 18.3665 18.6175 18.8435 18.1404C19.3206 17.6634 19.8869 17.2849 20.5102 17.0268C21.1335 16.7686 21.8016 16.6357 22.4763 16.6357C23.1509 16.6357 23.819 16.7686 24.4423 17.0268C25.0656 17.2849 25.6319 17.6634 26.109 18.1404C26.586 18.6175 26.9644 19.1838 27.2226 19.8071C27.4808 20.4304 27.6137 21.0985 27.6137 21.7731C27.6137 23.1357 27.0724 24.4424 26.109 25.4058C25.1455 26.3693 23.8388 26.9105 22.4763 26.9105C21.1137 26.9105 19.807 26.3693 18.8435 25.4058C17.8801 24.4424 17.3388 23.1357 17.3388 21.7731ZM31.862 15.8594H29.4647C29.1925 15.8586 28.9317 15.7501 28.7392 15.5577C28.5468 15.3652 28.4383 15.1044 28.4375 14.8322V12.432C28.4375 11.8649 28.8977 11.4062 29.4632 11.4062H31.8605C32.4305 11.4062 32.8906 11.8649 32.8906 12.432V14.8307C32.8906 15.3963 32.4305 15.8594 31.862 15.8594Z" fill="white"/>
</svg>
